Title                            : The Ledge
Year                             : 2011
Genre                            : Drama | Thriller
iMDB URL                         : http://www.imdb.com/title/tt1535970/

Complete name                    : The.Ledge.2011.BRRIP.720P.H264-ZEKTORM.mp4
Format                           : MPEG-4
Format profile                   : Base Media
Codec ID                         : isom
File size                        : 2.25 GiB
Duration                         : 1h 40mn
Overall bit rate                 : 3189 Kbps
Subtitles                        : English (Format: srt)

Video
ID                               : 1
Format                           : AVC
Format/Info                      : Advanced Video Codec
Format profile                   : High@L4.0
Format settings, CABAC           : Yes
Format settings, ReFrames        : 8 frames
Codec ID                         : avc1
Codec ID/Info                    : Advanced Video Coding
Duration                         : 1h 40mn
Bit rate mode                    : Variable
Bit rate                         : 2978 Kbps
Width                            : 1280 pixels
Height                           : 720 pixels
Display aspect ratio             : 16/9
Frame rate mode                  : Constant
Frame rate                       : 23.976 fps
Resolution                       : 24 bits
Colorimetry                      : 4:2:0
Scan type                        : Progressive
Bits/(Pixel*Frame)               : 0.135
Stream size                      : 2.10 GiB (93%)
Title                            : Video
Writing library                  : x264

Audio
ID                               : 2
Format                           : AAC
Format/Info                      : Advanced Audio Codec
Format version                   : Version 4
Format profile                   : LC
Format settings, SBR             : Yes
Format settings, PS              : No
Codec ID                         : 40
Duration                         : 1h 40mn
Bit rate mode                    : Variable
Bit rate                         : 208 Kbps
Maximum bit rate                 : 255 Kbps
Channel(s)                       : 6 channels
Channel positions                : Front: L C R, Rear: L R, LFE
Sampling rate                    : 48.0 KHz
Resolution                       : 16 bits
Stream size                      : 150 MiB (7%)
Title                            : English
Language                         : English


Screenshots:

[img]http://img225.imageshack.us/img225/7629/snaptl1.png[/img]

[img]http://img143.imageshack.us/img143/9950/snaptl2.png[/img]

[img]http://img199.imageshack.us/img199/196/snaptl3.png[/img]

[img]http://img535.imageshack.us/img535/6021/snaptl4.png[/img]
